<svg xmlns="http://www.w3.org/2000/svg" width="203.34" height="53" viewBox="0 0 203.34 53">
  <g id="header_logo" transform="translate(-4608 -7484)">
    <path id="路径_36920" data-name="路径 36920" d="M-60.58-6.62v-4.84h5.2v4.84Zm-7.12,0v-4.84h5.18v4.84Zm7.12-6.66v-3.48h-1.94v3.48h-7.04v9.66h1.86V-4.8h5.18V1.56h1.94V-4.8h5.2v1.08h1.94v-9.56Zm20.14,9.42a66.4,66.4,0,0,1,6.86,5.4L-32.24.02A77.831,77.831,0,0,0-39.2-5.16Zm.6-8.42h3.88v4.72h-4.06a18.637,18.637,0,0,0,.18-2.8Zm-5.98,4.72v-4.72h4.1v1.9a14.92,14.92,0,0,1-.24,2.82Zm11.82,0V-14.1h-5.84v-2.66h-1.88v2.66h-5.96v6.54h-2.16v1.82h7.36c-.94,2.3-3.02,4.36-7.48,5.68a7.451,7.451,0,0,1,1.02,1.64c5.36-1.66,7.62-4.34,8.54-7.32h8.3V-7.56Zm19.84-6.26v1.26h-1.52v-1.26Zm0,3.96h-1.52v-1.3h1.52Zm-3.06-2.7h-3.3v1.4h3.3v1.3h-2.42v1.38h2.42v1.22H-19.9V-5.8h2.68v1.32h-3.16v1.46h3.16V-.88h1.54V-3.02h3.88V-4.48h-3.88V-5.8h3.28V-7.26h-3.28V-8.48h2.96v-2.68h1.3v-1.4h-1.3V-15.2h-2.96v-1.58h-1.54v1.58h-2.42v1.38h2.42Zm-9.12-4.18A21.3,21.3,0,0,1-29.8-9.28a12.7,12.7,0,0,1,.88,1.94,17.978,17.978,0,0,0,1.2-1.76V1.56h1.64v-13.9a38.132,38.132,0,0,0,1.42-3.92Zm5.06,7.1-.18.02h-1.22c.7-1.76,1.52-3.94,2.16-5.78h-4.24v1.6h2c-.7,1.96-1.54,4.14-2.2,5.64h3a19.516,19.516,0,0,1-.9,4.3,10.491,10.491,0,0,1-1.06-2.56l-1.34.48a12.476,12.476,0,0,0,1.72,3.66A7.119,7.119,0,0,1-25.94.44a5.48,5.48,0,0,1,1.22,1.14A8.078,8.078,0,0,0-22.46-.98c1.94,1.8,4.48,2.24,7.36,2.24h3.24a5.418,5.418,0,0,1,.58-1.52c-.82.02-3.1.02-3.72.02-2.58,0-5-.42-6.76-2.18a24.635,24.635,0,0,0,1.44-7.02ZM2.2-8.3H5.52v1.36H2.2Zm0-2.66H5.52v1.3H2.2Zm0,5.34H7.28V-8.2H9.14V-9.8H7.28v-2.46H2.2v-1.22H8.92v-1.64H2.24a17.019,17.019,0,0,0-1.08-1.84l-1.84.46c.24.42.5.9.76,1.38h-7.7v5.8c0,2.94-.14,7.02-1.72,9.84a6.853,6.853,0,0,1,1.5,1.02c1.72-3.02,2-7.7,2-10.86v-4.16H.32v1.22H-4.52v1.3H.32v1.3H-5.4V-8.3H.32v1.36H-4.7v1.32h.56l-.94.98A22.656,22.656,0,0,1-2.22-2.6l1.06-1.16A28.784,28.784,0,0,0-3.98-5.62H.32V-3.6c-2.36.94-4.8,1.9-6.38,2.46L-5.34.38C-3.72-.32-1.66-1.24.32-2.14V-.38C.32-.06.2.06-.16.06-.48.08-1.7.1-2.82.04A5.089,5.089,0,0,1-2.24,1.6a11.666,11.666,0,0,0,3.48-.28c.7-.24.96-.66.96-1.68V-2.12A59.213,59.213,0,0,1,7.98.66L8.82-.66c-.94-.52-2.38-1.2-3.88-1.84C5.92-3.06,7-3.76,7.96-4.44L6.58-5.54A22.38,22.38,0,0,1,3.36-3.16c-.4-.16-.78-.3-1.16-.46Zm13.7-11.1a21.371,21.371,0,0,1-4.88,7.66,11.008,11.008,0,0,1,1.04,1.88,18.5,18.5,0,0,0,1.76-2.08V1.54H15.6V-11.98a33.608,33.608,0,0,0,2.04-4.18ZM19.48-4.74a19.124,19.124,0,0,1-3,4.36A8.544,8.544,0,0,1,17.92.66a27.943,27.943,0,0,0,3.24-4.88Zm.44-9.48h6.74V-11H19.92ZM29.6-5.54v-1.7H24.16v-2.1h4.36v-6.52H18.18v6.52H22.3v2.1H16.78v1.7H22.3V1.6h1.86V-5.54ZM25.1-3.98A27.05,27.05,0,0,1,28.22.52l1.5-.92A29.452,29.452,0,0,0,26.5-4.76Zm15.96-8.34a19.152,19.152,0,0,0,2.38-2.2,22.982,22.982,0,0,0,2.98,2.2Zm-.4,1.46h5.9v-1.38a26.944,26.944,0,0,0,2.88,1.52,7.2,7.2,0,0,1,.8-1.74,18.677,18.677,0,0,1-5.84-3.26c.14-.2.28-.42.42-.64l-1.8-.6a15.247,15.247,0,0,1-5.64,5,7.925,7.925,0,0,1,1.22,1.24,18.693,18.693,0,0,0,2.06-1.3Zm4.92,2.54h1.86v2.28H45.58Zm-1.4,3.58H48.9V-9.62H44.18Zm-4.3-3.58h1.76v2.28H39.88Zm-1.4,3.58H43.1V-9.62H38.48ZM36.9-16.04l-.22.06H32.56V1.54h1.56V-14.3h1.96c-.34,1.32-.8,3-1.24,4.3a6.142,6.142,0,0,1,1.44,3.86,1.716,1.716,0,0,1-.36,1.3.9.9,0,0,1-.52.18,7.994,7.994,0,0,1-.96-.02,3.639,3.639,0,0,1,.4,1.6,8.3,8.3,0,0,0,1.24-.02,2.6,2.6,0,0,0,1.02-.4,3.121,3.121,0,0,0,.76-2.46,6.9,6.9,0,0,0-1.48-4.2c.56-1.58,1.18-3.56,1.7-5.22ZM40.14-4.38A8.341,8.341,0,0,1,36.42.42a10.033,10.033,0,0,1,1.22,1.22,10.259,10.259,0,0,0,2.92-3.08A11.85,11.85,0,0,1,42.38.12l.96-1.24A10.249,10.249,0,0,0,41.26-2.7a13.638,13.638,0,0,0,.5-1.36Zm5.5-.02A6.987,6.987,0,0,1,42.62.38a8.7,8.7,0,0,1,1.22,1.2,7.739,7.739,0,0,0,2.34-2.66A25.944,25.944,0,0,1,49.02,1.3L50.12.02A25.179,25.179,0,0,0,46.84-2.5a12.779,12.779,0,0,0,.48-1.68ZM61.8-7.88V-9.16h3.78a21.056,21.056,0,0,1-2.06,1.28Zm5,5.06H58.5V-3.9h8.3ZM58.5-.4V-1.6h8.3V-.4Zm-.18-12.72H55.56v-1.62h2.76Zm1.7-1.62h2.86v1.62H60.02Zm4.56,0H67.5v1.62H64.58Zm5.76,8.36v-1.5H66.62a19.644,19.644,0,0,0,2.94-2.44l-1.5-.92a16.391,16.391,0,0,1-1.96,1.7v-1.08H61.8V-11.8h7.54v-4.26H53.8v4.26H60v1.18H54.74v1.46H60v1.28H52.68v1.5H60.4a46.6,46.6,0,0,1-8.18,2.46,9.813,9.813,0,0,1,.92,1.58c1.2-.28,2.42-.62,3.64-1.02v4.9H58.5V.96h8.3v.52h1.8V-5.26H61.84c.78-.34,1.54-.72,2.3-1.12Z" transform="translate(4741 7518)" fill="#085084"/>
    <circle id="椭圆_631" data-name="椭圆 631" cx="23.5" cy="23.5" r="23.5" transform="translate(4611 7487)" fill="#fff"/>
    <g id="组_20756" data-name="组 20756" transform="translate(4417 7303.11)">
      <path id="路径_36916" data-name="路径 36916" d="M244,207.389a26.5,26.5,0,1,1-26.5-26.5,26.5,26.5,0,0,1,26.5,26.5Zm-26.5-19.744a19.745,19.745,0,1,0,19.744,19.744A19.744,19.744,0,0,0,217.5,187.645Z" transform="translate(0)" fill="#004b9e" fill-rule="evenodd"/>
      <path id="路径_36917" data-name="路径 36917" d="M255.555,238.8c.029,0,.055,0,.082,0l3.287.028.009-2.943a4.029,4.029,0,0,0-.012-.448,3.363,3.363,0,0,0-6.721-.169h-.01V238.8h3.281c.029,0,.055,0,.084,0Zm14.747.233a3.368,3.368,0,1,0-3.365-3.367,3.366,3.366,0,0,0,3.365,3.367Zm0,.407a4.763,4.763,0,0,0-4.767,4.672h-5.212c0-.063.005-.125.005-.185a4.769,4.769,0,0,0-9.537,0,5.116,5.116,0,0,0,.03.537v13.488H260.3v-9.1h5.265v9.444h9.477V244.747a4.886,4.886,0,0,0,.031-.54,4.767,4.767,0,0,0-4.769-4.766Z" transform="translate(-45.459 -38.91)" fill="#1c9a3a" fill-rule="evenodd"/>
      <path id="路径_36918" data-name="路径 36918" d="M201.605,292.357h-3.354v.463h2.4l-2.4,1.171v.473h3.354V294h-2.381l2.381-1.128v-.516ZM199,298.152l3.13-1.519-.089-.481-3.466-.3.089.482.676.046.186,1-.614.287.088.481Zm2.368-1.628-1.293.6-.149-.692,1.443.1Zm1.333,2.171-.261-.789-.578.2.261.79-2.606.852.146.442,2.606-.852.254.769.578-.2-.4-1.212Zm.69,1.939-3.051,1.392.193.423,3.051-1.392-.193-.423Zm.978,1.866q-.353-.587-1.211-.07l-.576.347-.573.345q-.865.52-.512,1.107l.237.394.234.389q.353.587,1.219.068l.573-.345.576-.347q.859-.517.5-1.106l-.234-.389-.237-.394Zm-1.9.891.357-.215.356-.215c.353-.212.654-.23.8,0,.047.078.094.157.141.234l.14.232c.139.23-.023.48-.376.695l-.356.215-.358.215c-.357.215-.659.206-.8-.025l-.139-.231-.141-.234c-.139-.231.024-.454.38-.67Zm3.335,1.334-2.545,2.185.3.351,1.82-1.564-1.058,2.452.308.359,2.544-2.185-.3-.35-1.805,1.55,1.071-2.407-.336-.391Zm1.57,6.374,1.429-3.171-.376-.312-2.853,1.99.377.313.548-.4.786.652-.287.615.376.312Zm.774-2.767-.575,1.221-.52-.432,1.1-.789Zm.87,3.307,1.566-2.293-.384-.263-1.9,2.763,1.5,1.031.334-.471-1.117-.768Zm5.426,2.045-.561,1.281.426.186,1.343-3.073-.426-.186-.539,1.273-1.078-.471.539-1.273-.426-.186-1.342,3.073.426.186.561-1.28,1.078.471Zm1.591,2.012,1.466.465.192-.607-1.465-.464.245-.768,1.293.41.166-.527-1.293-.41.231-.738,1.417.449.18-.556-1.86-.59-1.014,3.2.443.14ZM221.1,316.7l-.392-3.456-.483-.076-1.436,3.169.484.076.268-.623,1.009.159.067.675.483.076Zm-.748-2.774.129,1.478-.736-.12.606-1.358Zm2.426,2.189v-2.771h-.465V316.7h1.821v-.583Zm2.493-2.847-.827.084.064.634.827-.084.274,2.7.463-.047-.274-2.7.806-.082-.064-.634-1.269.129Zm4.2,1.208.348,1.325.45-.118-.852-3.243-.45.118.342,1.3-1.138.3-.342-1.3-.45.118.852,3.244.45-.118-.348-1.325,1.138-.3Zm2.187-2.9,1.324,3.08.427-.183-1.324-3.081-.427.184Zm1.28-.589,1.736,2.87.4-.24-1.242-2.053,2.244,1.447.4-.245-1.736-2.869-.4.239,1.232,2.037-2.2-1.453-.442.267Zm4.581-1.487-.638.508c-.1.078-.229-.023-.353-.18-.142-.177-.253-.343-.146-.428l.28-.223.272-.217c.11-.087.235-.014.386.173l.363-.289a1.726,1.726,0,0,0-.512-.513.374.374,0,0,0-.419.057l-.433.345-.247.2q-.558.445-.042,1.094l.093.116.167.21c.316.4.557.413.863.168.236-.188.437-.356.624-.505.114-.091.233-.059.355.095.172.216.338.483.226.572l-.293.233-.3.242c-.1.083-.187.029-.31-.126l-.1-.125-.364.29c.08.112.153.22.222.3.3.364.505.373.767.2a4.418,4.418,0,0,0,.431-.343l.428-.341q.4-.315-.091-.926l-.167-.211-.145-.182c-.329-.413-.594-.452-.914-.2Zm.292-2.055,1.645,1.59q.763.738,1.327.16l.171-.177.163-.169q.569-.588-.2-1.329l-1.645-1.59-.323.334,1.585,1.508c.279.265.327.491.152.672l-.147.151-.148.154c-.173.178-.4.133-.675-.131l-1.585-1.508-.323.334Zm5.059-2.236.737.5.263-.385-.738-.5a.863.863,0,0,0-.511-.154,1.115,1.115,0,0,0-.466-.512l-.175-.119-.179-.122q-.7-.477-1.01-.026l-.164.241-.714,1.047,2.771,1.89.262-.384L241.941,306l.452-.663a.453.453,0,0,1,.216-.18.306.306,0,0,1,.267.056Zm-1.717-.718.106-.155q.106-.155.46.087c.234.159.317.292.249.4l-.105.155-.452.663-.708-.483.452-.663Zm4.476-2.27-3.4-.738-.227.434,2.541,2.376.227-.433-.5-.454.475-.9.661.153.227-.433Zm-2.867-.181,1.313.308-.313.6-1-.906Zm.178-2.055,3.161,1.12.154-.436-2.261-.8,2.653-.3.158-.446-3.161-1.12-.155.436,2.244.795-2.62.269-.173.486Zm2.111-5.035q-.771-.143-.9.531-.041.224-.083.447l-.084.452q-.125.673.86.856l.662.123.658.122q.992.185,1.118-.488.041-.223.084-.452c.028-.148.056-.3.084-.452q.127-.68-.724-.841c-.189-.036-.209-.044-.4-.079l-.085.457c.105.02.2.051.3.07.314.058.372.213.322.485-.017.091-.034.181-.051.27l-.05.268c-.049.265-.359.333-.769.258l-.41-.076-.409-.076c-.4-.075-.637-.246-.59-.513.016-.089.034-.179.05-.268l.049-.265a.361.361,0,0,1,.476-.325c.089.016.049,0,.141.014l.085-.458c-.176-.033-.167-.028-.34-.06Zm2.755-1.307v-1.537h-.61v1.537h-.775v-1.355h-.584v1.355h-.8v-1.486h-.584v1.952h3.353v-.466Z" transform="translate(-5.514 -84.562)" fill="#fff" fill-rule="evenodd"/>
      <path id="路径_36919" data-name="路径 36919" d="M252.045,198.772l-.343-.428.537-.437.458.568-.452.366a.083.083,0,0,1-.094.02.26.26,0,0,1-.106-.089Zm-1.532-1.875-.3-.377.55-.45.423.524-.469.383a.086.086,0,0,1-.089.016.318.318,0,0,1-.111-.1Zm-2.721-1.149.371.46a.769.769,0,0,0,.385.277.393.393,0,0,0,.354-.092l1.142-.924a.272.272,0,0,0,.1-.189.815.815,0,0,0-.038-.293.607.607,0,0,0,.292.086.421.421,0,0,0,.259-.1l1.31-1.061-1.189-1.478-3.828,3.1.436.544.408-.332Zm1.582-1.281.115.142a1.256,1.256,0,0,1,.145.211c.025.055.025.091.006.11l-1.055.853a.144.144,0,0,1-.083.033.089.089,0,0,1-.066-.039l-.268-.335,1.206-.977Zm1.466-1.185.328.41-1.021.825a.089.089,0,0,1-.1.017.286.286,0,0,1-.108-.092l-.211-.262,1.107-.9Zm1.512,1.436-.239-.075a.429.429,0,0,1-.146-.085,1.175,1.175,0,0,1-.164-.171l-.1-.124-.364.292.3.379a1.2,1.2,0,0,0,.243.244,3.811,3.811,0,0,0,.7.154l.934,1.18.275.352a4.356,4.356,0,0,0,.02.755,1.119,1.119,0,0,0,.17.282l.336.428.367-.287-.133-.17a1.16,1.16,0,0,1-.131-.2.483.483,0,0,1-.048-.162l-.017-.25.056-.432-1.635-2.067-.433-.044Zm-2.962,3.606.684.891,0-.006.008.01a.789.789,0,0,0,.311.248.473.473,0,0,0,.328,0l.49-.188-.281.614a.608.608,0,0,0-.043.253.371.371,0,0,0,.075.2l.333.409.337-.274-.118-.147a.213.213,0,0,1-.05-.116.2.2,0,0,1,.033-.12c.153-.527.14-.4-.124-.878l.374-.159.206.256a.744.744,0,0,0,.3.256.256.256,0,0,0,.26-.043l.962-.784-1.323-1.64-1.2.973.309.383-.791.328a.34.34,0,0,1-.14.016.136.136,0,0,1-.084-.044l-.232-.318h0l-.1-.124a.175.175,0,0,1-.046-.106.2.2,0,0,1,.034-.116c.153-.457.193-.341-.054-.762l.353-.149.211.262a.7.7,0,0,0,.293.24.255.255,0,0,0,.258-.049l.978-.795-1.268-1.575-1.22.988.27.336-.759.329a.45.45,0,0,1-.135.024.1.1,0,0,1-.08-.041l-.152-.187-.324.261.305.38a.728.728,0,0,0,.3.234.46.46,0,0,0,.326,0l.327-.132-.186.425a.505.505,0,0,0-.039.241.324.324,0,0,0,.074.193l0,.006Zm1.865-3.421,2.7,3.413-.335.265-2.7-3.414.335-.264Zm-25.476-8.735-.223,1.276a.6.6,0,0,1-.066.192.169.169,0,0,1-.11.076l-.276.047.1.574.481-.082.546,3.238.719-.12-.672-3.963.287-1.37-.782.131Zm2.271-.134.073.4,1.044-.169.072.407-1.277.207.078.424,1.277-.209.071.4-1.044.169.069.4,1.045-.169.077.424-1.149.187.077.425,1.144-.188.07.384-1.276.208.076.424,1.276-.208.044.234.809-.132-.04-.233,1.543-.252-.074-.424-1.548.253-.064-.387,1.413-.229-.073-.423-1.417.23-.076-.423.709-.117a.981.981,0,0,0,.459-.167.284.284,0,0,0,.112-.294l-.077-.445.4-.067-.074-.423-.407.067-.143-.809-1.344.22-.055-.3-.809.131.05.3-1.045.171Zm1.929.1.636-.1.075.407-.639.1-.071-.407Zm-2.908,2.39-.069.011.062.355.177-.027v0c.045.015.082.046.094.134.092.42.2.838.276,1.261a.238.238,0,0,1-.018.151.219.219,0,0,1-.144.1l-.129.027.083.477.375-.065a.536.536,0,0,0,.3-.15,2.453,2.453,0,0,0,.195-.432,2.076,2.076,0,0,0,.96.359l3.345-.561-.08-.48-2.864.474c-.289.048-1.552-.374-1.552-.584-.062-.51-.2-1.047-.454-1.07v0a.263.263,0,0,0,.178-.27l-.3-1.838a.2.2,0,0,0-.217-.164l-.572.082-.123.02.072.48.132-.023c.087-.015.183-.012.2.109l.251,1.453c.011.082-.068.161-.173.177Zm3.055-1.559.64-.1.054.315a.071.071,0,0,1-.033.075.325.325,0,0,1-.124.04l-.466.076-.071-.4Zm-11.388,5.3,4.119-2.536a.705.705,0,0,0,.3-.3.348.348,0,0,0-.042-.329l-.879-1.43-5.3,3.254,2.344,3.817a.406.406,0,0,0,.3.215.689.689,0,0,0,.422-.128l2.227-1.369-.291-.478-1.841,1.133a.236.236,0,0,1-.13.048.093.093,0,0,1-.086-.049l-.53-.86,2.771-1.706,1.633.661c.173.142.464.049.631-.053l.824-.457-.315-.438-.554.3a.326.326,0,0,1-.137.047.2.2,0,0,1-.117-.045l-1.206-.477,1.282-.786-.276-.456q-.819.5-1.626,1l-.381-.151-.754.46.383.155c-.811.5-1.62,1-2.438,1.5l-.327-.538Zm-.808-1.315,3.863-2.373.47.758a.09.09,0,0,1,0,.1.278.278,0,0,1-.095.092l-3.719,2.284-.523-.856Zm-1.942,2.9-3.735,4.7.438.345,1.614-2.031.617.486-1.574,2,.433.339,1.574-1.993.58.459-1.713,2.167.455.361,3.952-5-.457-.36-1.73,2.191-.582-.457,1.593-2.017-.43-.34-1.594,2.015-.618-.488,1.615-2.033-.436-.344Zm-4.2,3.255.03.3a.378.378,0,0,1-.028.187.882.882,0,0,1-.127.208l-.307.388.316.248.517-.654a1.326,1.326,0,0,0,.22-.372.65.65,0,0,0,.036-.336l-.008-.594.749-.942.887-1.11.581-.125a.649.649,0,0,0,.318-.111,1.394,1.394,0,0,0,.314-.3l.521-.649-.311-.251-.31.386a.873.873,0,0,1-.175.171.4.4,0,0,1-.174.068l-.3.037-.518-.015-1.187,1.48h0l-.068.087-.076.094h0l-1.034,1.307.129.5Zm26.757-6.712.1.406a.558.558,0,0,0,.474.436l.973.181.084-.443-.652-.121a.147.147,0,0,1-.086-.043.167.167,0,0,1-.043-.094l-.023-.168-.826-.153Zm.971-.8a.642.642,0,0,1-.186.167.292.292,0,0,1-.188.033l-.651-.122-.084.448.975.182a.751.751,0,0,0,.231.01.533.533,0,0,0,.215-.061.715.715,0,0,0,.225-.17,3.467,3.467,0,0,0,.262-.34l-.8-.148Zm-3.688.294a.684.684,0,0,1-.2.172.329.329,0,0,1-.206.029l-.435-.083-.084.442.764.145a.967.967,0,0,0,.249.012,1.052,1.052,0,0,0,.235-.053.756.756,0,0,0,.23-.168,2.439,2.439,0,0,0,.279-.342l-.829-.154Zm-.386-1.053.128.4a.6.6,0,0,0,.2.3.822.822,0,0,0,.366.153l.708.133.083-.449-.415-.077a.308.308,0,0,1-.139-.055.208.208,0,0,1-.078-.1l-.053-.171-.8-.147Zm2.887-.433,1.094.206-.036.2a.069.069,0,0,1-.055.055.338.338,0,0,1-.135,0l-.922-.17.055-.291Zm.124-.664,1.094.2-.049.267-1.1-.2.053-.266Zm-2.806-.981-.082.445,2.122.4-.05.267-2.27-.429-.073.394,2.27.43-.053.292-2.123-.4-.082.444,2.123.4-.261,1.417a.076.076,0,0,1-.054.062.24.24,0,0,1-.117,0l-.295-.055-.081.443.477.091a1.154,1.154,0,0,0,.567-.01.367.367,0,0,0,.248-.3l.279-1.511,1.188.222c.454.085.7,0,.751-.25l.063-.356.471.086.073-.4-.468-.088.13-.711-1.868-.346.049-.27-.762-.141-.05.267-2.123-.4Zm1.967-.921-.057.312-2.834-.529-.768,4.155a.069.069,0,0,1-.051.056.268.268,0,0,1-.117,0l-.231-.042-.094.489.387.071a.953.953,0,0,0,.6-.037.515.515,0,0,0,.274-.393l.677-3.663,5.606,1.042.091-.487-2.66-.5L238.5,186l-.885-.165Zm8.164,7.016-.311,1.265a.535.535,0,0,0,.026.369.722.722,0,0,0,.276.3l.475.32.311-.463-.206-.136a.2.2,0,0,1-.076-.1.265.265,0,0,1,.006-.15l.218-.929-.718-.478Zm-2.256-1.5-.7.617a.428.428,0,0,1-.147.067.133.133,0,0,1-.1-.011l-.324-.216-.3.442.548.367a.791.791,0,0,0,.4.14.577.577,0,0,0,.361-.138l.954-.8-.7-.464Zm3.7.134L245,190l.566-.847,2.351,1.57-.474.708a.165.165,0,0,1-.1.081.155.155,0,0,1-.116-.029Zm-2.073-3.219-1.132,1.693,1.415.944-.332.5-1.731-1.153-.309.461,1.729,1.155-1.129,1.693.716.479,1.132-1.7,1.762,1.177.308-.462-1.761-1.175.332-.5,1.115.745c.329.218.577.2.741-.041l.885-1.323-3.741-2.5Zm-.908-.776-.878.535a.451.451,0,0,1-.159.056.163.163,0,0,1-.126-.028l-.273-.183-.323.484.426.283-2.042,3.057.666.443,2.383-3.567,1.04-.6-.715-.477Z" transform="translate(-15.48 -3.454)" fill="#fff"/>
    </g>
  </g>
</svg>
