<svg xmlns="http://www.w3.org/2000/svg" width="36" height="36" viewBox="0 0 36 36">
  <g id="组_18250" data-name="组 18250" transform="translate(-316 -1398)">
    <rect id="矩形_4312" data-name="矩形 4312" width="36" height="36" rx="4" transform="translate(316 1398)" fill="#42b9d0"/>
    <path id="路径_33590" data-name="路径 33590" d="M-344.961,361.462v-.39a1.488,1.488,0,0,1,1.031-.973,9.716,9.716,0,0,1,2.035-.435c.875-.124,1.748-.26,2.621-.391a1.206,1.206,0,0,0,.959-.679c.462-.916.915-1.837,1.4-2.74a13.278,13.278,0,0,1,.918-1.467,1.254,1.254,0,0,1,1.152-.613,1.465,1.465,0,0,1,.99.634,9.294,9.294,0,0,1,1.07,1.83q.606,1.232,1.232,2.455a1.02,1.02,0,0,0,.685.566c.259.061.517.131.78.172.957.15,1.916.281,2.872.435a4.555,4.555,0,0,1,1.625.517,1.056,1.056,0,0,1,.469,1.528,5.366,5.366,0,0,1-.862,1.194c-.739.768-1.517,1.5-2.293,2.232a1.743,1.743,0,0,0-.675,1.789c.014.056.014.116.023.174.167,1.019.345,2.037.5,3.059a4.212,4.212,0,0,1-.016,1.667,1.056,1.056,0,0,1-1.182.874,2.1,2.1,0,0,1-.7-.141c-.718-.316-1.426-.656-2.129-1-.664-.328-1.318-.674-1.974-1.016a1.2,1.2,0,0,0-1.158-.007c-.816.415-1.63.834-2.447,1.247a8.686,8.686,0,0,1-2.012.829,1.184,1.184,0,0,1-1.6-1.129,6.531,6.531,0,0,1,.107-1.785c.174-1.071.355-2.14.533-3.21a1.06,1.06,0,0,0-.3-.966c-.741-.749-1.489-1.49-2.229-2.24A5.1,5.1,0,0,1-344.961,361.462Z" transform="translate(668.961 1052.231)" fill="#fff"/>
  </g>
</svg>
