<svg xmlns="http://www.w3.org/2000/svg" width="36" height="36" viewBox="0 0 36 36">
  <g id="组_18251" data-name="组 18251" transform="translate(-316 -1917)">
    <rect id="矩形_4313" data-name="矩形 4313" width="36" height="36" rx="4" transform="translate(316 1917)" fill="#42b9d0"/>
    <g id="组_17840" data-name="组 17840" transform="translate(844.915 2138.977)">
      <path id="路径_33594" data-name="路径 33594" d="M-404.658-195.425h-9.883c-.05-.04-.1-.083-.15-.118-.7-.463-1.4-.928-2.1-1.384a.309.309,0,0,1-.16-.3q.006-4.6,0-9.2a.262.262,0,0,1,.2-.294,6.8,6.8,0,0,0,3.705-3.294,7.135,7.135,0,0,0,.775-3.272,3.1,3.1,0,0,1,.126-.958,1.681,1.681,0,0,1,1.4-1.158,1.706,1.706,0,0,1,1.609.6,1.881,1.881,0,0,1,.445,1.317q0,1.738,0,3.477c0,.075.006.151.01.242h4.742a1.777,1.777,0,0,1,1.546.76,4.616,4.616,0,0,1,.356.769v.469a.3.3,0,0,0-.03.069,1.758,1.758,0,0,1-1.61,1.5c-.051,0-.1.02-.2.04a1.84,1.84,0,0,1,1.454,2.114,1.815,1.815,0,0,1-1.862,1.451,1.838,1.838,0,0,1,1.535,1.994,1.8,1.8,0,0,1-1.849,1.6,5.911,5.911,0,0,1,.645.274,1.779,1.779,0,0,1,.255,2.865A2.32,2.32,0,0,1-404.658-195.425Z" transform="translate(-98.874)" fill="#fff"/>
      <path id="路径_33595" data-name="路径 33595" d="M-520.915-53.895v-12.72h3.905c0,.063.012.125.012.187q0,6.189,0,12.378c0,.052-.007.1-.011.155Z" transform="translate(0 -141.531)" fill="#fff"/>
    </g>
  </g>
</svg>
